<?xml version="1.0" encoding="utf-8"?>
<!-- Generator: Adobe Illustrator 22.1.0, SVG Export Plug-In . SVG Version: 6.00 Build 0)  -->
<svg version="1.1" id="Layer_1" xmlns="http://www.w3.org/2000/svg" xmlns:xlink="http://www.w3.org/1999/xlink" x="0px" y="0px"
	 viewBox="0 0 19.8 18" style="enable-background:new 0 0 19.8 18;" xml:space="preserve">
<style type="text/css">
	.st0{fill:#F78B11;}
	.st1{fill:#FDD704;}
	.st2{fill:#80CC28;}
	.st3{fill:#2D9EDF;}
</style>
<g>
	<path class="st0" d="M10.3,9.8C10.1,9.9,10,9.9,9.9,9.9c-0.6,0.2-1.8,0.4-2.2-0.9C7.3,8.1,8,5.5,8.6,5.3c0.6-0.2,2.7,1.3,3,2.4
		C12.1,9.1,10.8,9.6,10.3,9.8z"/>
	<path id="path2813_1_" class="st1" d="M7.4,16.3c-3-2.2-6.1-9.2-6-12.3C0.8,4.3,0.3,4.7,0.1,5C-1,7.2,4.1,15.5,8,17.4
		c3.8,1.8,6.4-0.9,7.7-3C14.2,16.2,11,18.9,7.4,16.3"/>
	<path id="path2817_1_" class="st2" d="M15.9,14.3c-1.8,1.5-5.6,4.1-8.9,0.7C4.7,12.7,3.1,6.9,3.1,3.3c0-0.5,0-1,0.1-1.4
		C2.5,2.1,2,2.4,1.8,2.8C1.6,3,1.5,3.4,1.4,4c-0.1,3.1,3,10.1,6,12.3c3.6,2.6,6.8-0.1,8.4-1.9c0.1-0.1,0.1-0.2,0.2-0.3
		C16,14.2,15.9,14.2,15.9,14.3"/>
	<path id="path2821_1_" class="st3" d="M18,6.9c-0.6,0-0.9,0.5-0.9,1.1C17,8.5,17.4,9,18,9s1-0.5,1-1.1C18.9,7.3,18.6,6.9,18,6.9z
		 M18,6.9c-0.6,0-0.9,0.5-0.9,1.1C17,8.5,17.4,9,18,9s1-0.5,1-1.1C18.9,7.3,18.6,6.9,18,6.9z M18,6.9c-0.6,0-0.9,0.5-0.9,1.1
		C17,8.5,17.4,9,18,9s1-0.5,1-1.1C18.9,7.3,18.6,6.9,18,6.9z"/>
	<path class="st3" d="M18.1,4.1c-3-3.1-12.6-5-14.4-3.3C3.5,1,3.3,1.4,3.2,2C3.1,2.4,3.1,2.9,3.1,3.4C3,7,4.7,12.8,6.9,15.1
		c3.3,3.4,7.2,0.8,8.9-0.7l0.1-0.1c0.3-0.3,0.5-0.5,0.7-0.6C17.6,12.7,22.3,8.5,18.1,4.1z M10.1,9.6c-0.3,0.1-1.8,0.6-2.2-0.7
		c-0.3-1,0.2-3.2,0.8-3.4c0.6-0.2,2.4,1.2,2.7,2.2C11.9,9.1,10.4,9.5,10.1,9.6z"/>
</g>
</svg>
